{"title":"Midnight Stallion (2013) 720p AC3 XViD-SaRGN","uid":9341070,"size":770339200,"categoryP":"video","categoryS":"movies","magnet":"?xt=urn:btih:7568726df488769d02c1d1250dc80c65cb7f3e15&amp;dn=Midnight+Stallion+%282013%29+720p+AC3+XViD-SaRGN&amp;tr=udp%3A%2F%2Ftracker.openbittorrent.com%3A80&amp;tr=udp%3A%2F%2Fopen.demonii.com%3A1337&amp;tr=udp%3A%2F%2Ftracker.coppersurfer.tk%3A6969&amp;tr=udp%3A%2F%2Fexodus.desync.com%3A6969","seeders":0,"leechers":0,"uploader":"SaRGN","files":1,"time":1386933386,"description":"A family adopts a wild horse and enters him in a race.\n\nSize: 770339200 bytes (734.65 MiB), duration: 01:30:13, avg.bitrate: 1139 kb/s\nAudio: ac3, 48000 Hz, stereo, s16, 128 kb/s\nVideo: mpeg4, yuv420p, 1280x720, 23.98 fps(r)\n\n\nx264.avi\nFormat                                   : AVI\nFormat/Info                              : Audio Video Interleave\nFile size                                : 735 MiB\nDuration                                 : 1h 30mn\nOverall bit rate                         : 1 138 Kbps\nWriting application                      : Lavf55.12.102\n\n------------------------------------------------------------\n\nVideo\nID                                       : 0\nFormat                                   : MPEG-4 Visual\nFormat profile                           : Simple@L3\nFormat settings, BVOP                    : No\nFormat settings, QPel                    : No\nFormat settings, GMC                     : No warppoints\nFormat settings, Matrix                  : Default (H.263)\nCodec ID                                 : XVID\nCodec ID/Hint                            : XviD\nDuration                                 : 1h 30mn\nBit rate                                 : 1 000 Kbps\nWidth                                    : 1 280 pixels\nHeight                                   : 720 pixels\nDisplay aspect ratio                     : 16:9\nFrame rate                               : 23.976 fps\nColor space                              : YUV\nChroma subsampling                       : 4:2:0\nBit depth                                : 8 bits\nScan type                                : Progressive\nCompression mode                         : Lossy\nBits/(Pixel*Frame)                       : 0.045\nStream size                              : 645 MiB (88%)\nWriting library                          : XviD 64\n\n---------------------------------------------------------------------\n\nAudio\nID                                       : 1\nFormat                                   : AC-3\nFormat/Info                              : Audio Coding 3\nMode extension                           : CM (complete main)\nFormat settings, Endianness              : Big\nCodec ID                                 : 2000\nDuration                                 : 1h 30mn\nBit rate mode                            : Constant\nBit rate                                 : 128 Kbps\nChannel count                            : 2 channels\nChannel positions                        : Front: L R\nSampling rate                            : 48.0 KHz\nBit depth                                : 16 bits\nCompression mode                         : Lossy\nStream size                              : 82.6 MiB (11%)\nAlignment                                : Aligned on interleaves\nInterleave, duration                     : 32 ms (0.77 video frame)\n\n\n************************************************************\n\n\nEncoded By: SaRGN\n\n\n************************************************************\n\n\n\nScreens:\n &lt;a href=&quot;\nhttp://www.nimplus.com/viewer.php?file=28246703301507881066.jpeg&quot; rel=&quot;nofollow&quot; target=&quot;_NEW&quot;&gt;\nhttp://www.nimplus.com/viewer.php?file=28246703301507881066.jpeg&lt;/a&gt;\n &lt;a href=&quot;\nhttp://www.nimplus.com/viewer.php?file=84663027607521021302.jpeg&quot; rel=&quot;nofollow&quot; target=&quot;_NEW&quot;&gt;\nhttp://www.nimplus.com/viewer.php?file=84663027607521021302.jpeg&lt;/a&gt;\n &lt;a href=&quot;\nhttp://www.nimplus.com/viewer.php?file=69941627271292009397.jpeg&quot; rel=&quot;nofollow&quot; target=&quot;_NEW&quot;&gt;\nhttp://www.nimplus.com/viewer.php?file=69941627271292009397.jpeg&lt;/a&gt;","torrent":{"xt":"urn:btih:7568726df488769d02c1d1250dc80c65cb7f3e15","amp;dn":"Midnight+Stallion+%282013%29+720p+AC3+XViD-SaRGN","amp;tr":["udp%3A%2F%2Ftracker.openbittorrent.com%3A80","udp%3A%2F%2Fopen.demonii.com%3A1337","udp%3A%2F%2Ftracker.coppersurfer.tk%3A6969","udp%3A%2F%2Fexodus.desync.com%3A6969"],"infoHash":"7568726df488769d02c1d1250dc80c65cb7f3e15","infoHashBuffer":{"type":"Buffer","data":[117,104,114,109,244,136,118,157,2,193,209,37,13,200,12,101,203,127,62,21]},"announce":[],"urlList":[]}}